# xmcd
#
# Track frame offsets:
#	150
#	13622
#	28784
#	41310
#	55298
#	70506
#	84079
#	99069
#	112002
#	124460
#
# Disc length: 1840 seconds
#
# Revision: 0
# Processed by: cddbd v1.5.2PL0 Copyright (c) Steve Scherf et al.
# Submitted via: EasyCDDAExtractor 8.2.1.1
#
DISCID=73072e0a
DTITLE=Mike Denver - Messenger Boy
DYEAR=2005
DGENRE=Country
TTITLE0=Here I Am In Love Again
TTITLE1=Geraldine's Thinking Of Galway
TTITLE2=Ruby (Don't Take Your Love To Town)
TTITLE3=Messenger Boy
TTITLE4=I Do
TTITLE5=Too Old To Die Young
TTITLE6=My Darling Kathleen
TTITLE7=Back In '68
TTITLE8=Release Me
TTITLE9=Sylvia's Mother
EXTD=
EXTT0=
EXTT1=
EXTT2=
EXTT3=
EXTT4=
EXTT5=
EXTT6=
EXTT7=
EXTT8=
EXTT9=
PLAYORDER=
